<?xml version="1.0" encoding="UTF-8" standalone="no"?>
<!-- Created with Inkscape (http://www.inkscape.org/) -->
<svg xmlns:rdf="http://www.w3.org/1999/02/22-rdf-syntax-ns#" xmlns="http://www.w3.org/2000/svg" height="65.75" width="65" version="1.1" xmlns:cc="http://creativecommons.org/ns#" xmlns:dc="http://purl.org/dc/elements/1.1/">
<defs>
<clipPath id="clipPath3206" clipPathUnits="userSpaceOnUse">
<path stroke-linejoin="miter" d="m0.46925-435.53,519.06,0,0,525.06-519.06,0z" fill-rule="evenodd" mask="none" stroke="#000" stroke-linecap="butt" stroke-width="0.93850958px" fill="#151515"/>
</clipPath>
<clipPath id="clipPath3210" clipPathUnits="userSpaceOnUse">
<path stroke-linejoin="miter" d="m0.46925-435.53,519.06,0,0,525.06-519.06,0z" fill-rule="evenodd" mask="none" stroke="#000" stroke-linecap="butt" stroke-width="0.93850958px" fill="#151515"/>
</clipPath>
<clipPath id="clipPath3232" clipPathUnits="userSpaceOnUse">
<path stroke-linejoin="miter" d="m0.50276-435.5,519.06,0,0,525.06-519.06,0z" fill-rule="evenodd" mask="none" stroke="#000" stroke-linecap="butt" stroke-width="0.93850958px" fill="#151515"/>
</clipPath>
<clipPath id="clipPath3236" clipPathUnits="userSpaceOnUse">
<path stroke-linejoin="miter" d="m0.50276-435.5,519.06,0,0,525.06-519.06,0z" fill-rule="evenodd" mask="none" stroke="#000" stroke-linecap="butt" stroke-width="0.93850958px" fill="#151515"/>
</clipPath>
<filter id="filter3770" color-interpolation-filters="sRGB">
<feGaussianBlur stdDeviation="0.90000000000000002" result="result6"/>
<feComposite operator="atop" result="result8" in2="result6" in="SourceGraphic"/>
<feComposite operator="atop" result="result9" in2="SourceAlpha" in="result8"/>
</filter>
<filter id="filter3778" color-interpolation-filters="sRGB">
<feGaussianBlur stdDeviation="0.90000000000000002" result="result6"/>
<feComposite operator="atop" result="result8" in2="result6" in="SourceGraphic"/>
<feComposite operator="atop" result="result9" in2="SourceAlpha" in="result8"/>
</filter>
<filter id="filter3786" color-interpolation-filters="sRGB">
<feGaussianBlur stdDeviation="0.90000000000000002" result="result6"/>
<feComposite operator="atop" result="result8" in2="result6" in="SourceGraphic"/>
<feComposite operator="atop" result="result9" in2="SourceAlpha" in="result8"/>
</filter>
<filter id="filter3794" color-interpolation-filters="sRGB">
<feGaussianBlur stdDeviation="0.90000000000000002" result="result6"/>
<feComposite operator="atop" result="result8" in2="result6" in="SourceGraphic"/>
<feComposite operator="atop" result="result9" in2="SourceAlpha" in="result8"/>
</filter>
<filter id="filter3802" color-interpolation-filters="sRGB">
<feGaussianBlur stdDeviation="0.90000000000000002" result="result6"/>
<feComposite operator="atop" result="result8" in2="result6" in="SourceGraphic"/>
<feComposite operator="atop" result="result9" in2="SourceAlpha" in="result8"/>
</filter>
<filter id="filter3810" color-interpolation-filters="sRGB">
<feGaussianBlur stdDeviation="0.90000000000000002" result="result6"/>
<feComposite operator="atop" result="result8" in2="result6" in="SourceGraphic"/>
<feComposite operator="atop" result="result9" in2="SourceAlpha" in="result8"/>
</filter>
<filter id="filter3818" color-interpolation-filters="sRGB">
<feGaussianBlur stdDeviation="0.90000000000000002" result="result6"/>
<feComposite operator="atop" result="result8" in2="result6" in="SourceGraphic"/>
<feComposite operator="atop" result="result9" in2="SourceAlpha" in="result8"/>
</filter>
<filter id="filter3826" color-interpolation-filters="sRGB">
<feGaussianBlur stdDeviation="0.90000000000000002" result="result6"/>
<feComposite operator="atop" result="result8" in2="result6" in="SourceGraphic"/>
<feComposite operator="atop" result="result9" in2="SourceAlpha" in="result8"/>
</filter>
<filter id="filter3834" color-interpolation-filters="sRGB">
<feGaussianBlur stdDeviation="0.90000000000000002" result="result6"/>
<feComposite operator="atop" result="result8" in2="result6" in="SourceGraphic"/>
<feComposite operator="atop" result="result9" in2="SourceAlpha" in="result8"/>
</filter>
<filter id="filter3842" color-interpolation-filters="sRGB">
<feGaussianBlur stdDeviation="0.90000000000000002" result="result6"/>
<feComposite operator="atop" result="result8" in2="result6" in="SourceGraphic"/>
<feComposite operator="atop" result="result9" in2="SourceAlpha" in="result8"/>
</filter>
</defs>
<metadata>
<rdf:RDF>
<cc:Work rdf:about="">
<dc:format>image/svg+xml</dc:format>
<dc:type rdf:resource="http://purl.org/dc/dcmitype/StillImage"/>
<dc:title/>
</cc:Work>
</rdf:RDF>
</metadata>
<g transform="translate(0,-24.25)">
<g transform="matrix(0.24993554,0,0,0.24993554,0.02512792,67.530959)">
<path stroke-linejoin="miter" d="m-17.157-189.46,293.31,0,0,293.96-293.31,0z" fill-rule="evenodd" mask="none" stroke="#212121" stroke-linecap="butt" stroke-miterlimit="4" stroke-dasharray="none" stroke-width="1.42715192" fill="#212121"/>
<path opacity="0.4" d="m61.774-172.9c-5.1528,0.0245-10.074,0.46325-14.404,1.2298-12.755,2.2537-15.071,6.9699-15.071,15.669v11.489h30.143v3.8291h-41.456c-8.7604,0-16.431,5.2654-18.83,15.282-2.7678,11.482-2.8914,18.647,0,30.636,2.1428,8.9231,7.259,15.282,16.02,15.282h10.363v-13.773c0-9.948,8.6081-18.725,18.83-18.725h30.108c8.3809,0,15.071-6.8999,15.071-15.317v-28.702c0-8.1676-6.8909-14.305-15.071-15.669-5.178-0.86222-10.551-1.2542-15.704-1.2295zm-16.301,9.2394c3.1134,0,5.6564,2.5841,5.6564,5.7614,0,3.166-2.543,5.727-5.6564,5.727-3.1254,0-5.6564-2.561-5.6564-5.727,0-3.1772,2.5311-5.7614,5.6564-5.7614z" filter="url(#filter3786)" fill="#303030"/>
<path opacity="0.4" d="m96.307-140.68v13.385c0,10.378-8.7973,19.111-18.83,19.111h-30.108c-8.2468,0-15.071,7.0589-15.071,15.318v28.704c0,8.1678,7.1028,12.974,15.071,15.316,9.5419,2.8057,18.691,3.3143,30.108,0,7.5882-2.1959,15.071-6.6188,15.071-15.316v-11.486h-30.107v-3.8286h45.178c8.7609,0,12.026-6.11,15.072-15.282,3.1471-9.4432,3.0135-18.524,0-30.636-2.1647-8.72-6.2999-15.282-15.072-15.282h-11.313zm-16.932,72.687c3.1246,0,5.6562,2.559,5.6562,5.7252,0,3.177-2.5316,5.7623-5.6562,5.7623-3.1132,0-5.6557-2.5854-5.6557-5.7623-0.00025-3.1662,2.5423-5.7252,5.6557-5.7252z" filter="url(#filter3794)" fill="#303030"/>
<path opacity="0.4" d="m62.107-40.55c-5.1528,0.02444-10.074,0.46325-14.404,1.2298-12.755,2.2537-15.071,6.9699-15.071,15.669v11.489h30.143v3.8291h-41.456c-8.7604,0-16.431,5.2655-18.83,15.282-2.7678,11.482-2.8914,18.647,0,30.636,2.1428,8.9231,7.259,15.282,16.02,15.282h10.364v-13.775c0-9.948,8.6081-18.725,18.83-18.725h30.108c8.3809,0,15.071-6.8999,15.071-15.317v-28.702c0-8.1676-6.8909-14.305-15.071-15.669-5.178-0.86221-10.551-1.2542-15.704-1.2295zm-16.301,9.2393c3.1134,0,5.6564,2.5841,5.6564,5.7614,0,3.166-2.543,5.727-5.6564,5.727-3.1254,0-5.6564-2.561-5.6564-5.727,0-3.1772,2.5311-5.7614,5.6564-5.7614z" filter="url(#filter3802)" fill="#303030"/>
<path opacity="0.4" d="M96.64-8.3349v13.385c0,10.378-8.7973,19.111-18.83,19.111h-30.107c-8.2468,0-15.071,7.0589-15.071,15.318v28.704c0,8.1678,7.1028,12.974,15.071,15.316,9.5419,2.8057,18.691,3.3143,30.108,0,7.5882-2.1959,15.071-6.6188,15.071-15.316v-11.49h-30.107v-3.8286h45.178c8.7609,0,12.026-6.11,15.072-15.282,3.1471-9.4432,3.0135-18.524,0-30.636-2.16-8.7187-6.3-15.28-15.07-15.28h-11.31zm-16.932,72.687c3.1246,0,5.6562,2.559,5.6562,5.7252,0,3.177-2.5316,5.7623-5.6562,5.7623-3.1132,0-5.6557-2.5854-5.6557-5.7623-0.00025-3.1663,2.5423-5.7252,5.6557-5.7252z" filter="url(#filter3810)" fill="#303030"/>
<path opacity="0.4" d="m191.39-105.98c-5.1528,0.0244-10.074,0.46325-14.404,1.2298-12.755,2.2537-15.071,6.9699-15.071,15.669v11.489h30.143v3.8291h-41.456c-8.7604,0-16.431,5.2655-18.83,15.282-2.7678,11.482-2.8914,18.647,0,30.636,2.1428,8.9231,7.259,15.282,16.02,15.282h10.364v-13.773c0-9.9481,8.6081-18.725,18.83-18.725h30.108c8.3809,0,15.071-6.8999,15.071-15.317v-28.702c0-8.1676-6.891-14.305-15.071-15.669-5.178-0.86221-10.551-1.2542-15.704-1.2295zm-16.301,9.2393c3.1134,0,5.6564,2.5841,5.6564,5.7613,0,3.166-2.543,5.727-5.6564,5.727-3.1254,0-5.6564-2.561-5.6564-5.727,0-3.1772,2.531-5.7613,5.6564-5.7613z" filter="url(#filter3842)" fill="#303030"/>
<path opacity="0.4" d="m225.92-73.764v13.385c0,10.378-8.7973,19.111-18.83,19.111h-30.108c-8.2468,0-15.071,7.0589-15.071,15.318v28.703c0,8.1678,7.1028,12.974,15.071,15.316,9.5419,2.8057,18.69,3.3143,30.108,0,7.5882-2.1959,15.071-6.6188,15.071-15.316v-11.489h-30.107v-3.8286h45.178c8.7609,0,12.026-6.11,15.072-15.282,3.1471-9.4432,3.0135-18.524,0-30.636-2.1647-8.72-6.2999-15.282-15.072-15.282h-11.306zm-16.932,72.687c3.1246,0,5.6562,2.559,5.6562,5.7252,0,3.177-2.5316,5.7623-5.6562,5.7623-3.1132,0-5.6557-2.5854-5.6557-5.7623-0.00025-3.1663,2.5423-5.7252,5.6557-5.7252z" filter="url(#filter3834)" fill="#303030"/>
<path opacity="0.4" d="m383.51-37.331c-10.308,0.04885-20.153,0.92674-28.816,2.4602-25.518,4.5086-30.15,13.943-30.15,31.345v22.983h60.302v7.6602h-82.925c-17.525,0-32.871,10.534-37.669,30.571-5.537,22.969-5.7843,37.304,0,61.287,4.2867,17.851,14.522,30.571,32.048,30.571h20.733v-27.552c0-19.901,17.221-37.46,37.67-37.46h60.232c16.766,0,30.15-13.803,30.15-30.642v-57.424c0-16.339-13.785-28.618-30.15-31.345-10.359-1.7249-21.108-2.509-31.415-2.4597zm-32.61,18.483c6.2284,0,11.316,5.1696,11.316,11.526,0,6.3336-5.0874,11.457-11.316,11.457-6.2524,0-11.316-5.1232-11.316-11.457,0-6.3561,5.0634-11.526,11.316-11.526z" clip-path="url(#clipPath3210)" transform="matrix(0.49987113,0,0,0.49987113,0.06096039,45.145485)" filter="url(#filter3826)" fill="#303030"/>
<path opacity="0.4" d="M452.6,27.116v26.777c0,20.762-17.599,38.232-37.669,38.232h-60.232c-16.498,0-30.15,14.121-30.15,30.643v57.422c0,16.34,14.209,25.954,30.15,30.64,19.089,5.6128,37.391,6.6302,60.232,0,15.18-4.3929,30.15-13.241,30.15-30.64v-22.984h-60.23v-7.6592h90.379c17.526,0,24.058-12.223,30.151-30.571,6.2958-18.891,6.0285-37.057,0-61.287-4.3306-17.445-12.603-30.571-30.151-30.571h-22.633zm-33.88,145.41c6.2509,0,11.315,5.1193,11.315,11.453,0,6.3556-5.0644,11.528-11.315,11.528-6.228,0-11.314-5.1721-11.314-11.528-0.0005-6.3341,5.0858-11.453,11.314-11.453z" clip-path="url(#clipPath3206)" transform="matrix(0.49987113,0,0,0.49987113,0.01675482,45.028373)" filter="url(#filter3818)" fill="#303030"/>
<path opacity="0.4" d="m382.85-565.74c-10.308,0.0489-20.153,0.92674-28.816,2.4602-25.518,4.5086-30.15,13.943-30.15,31.345v22.983h60.302v7.6602h-82.933c-17.525,0-32.871,10.534-37.669,30.571-5.537,22.969-5.7843,37.304,0,61.287,4.2867,17.851,14.522,30.571,32.048,30.571h20.733v-27.552c0-19.901,17.221-37.46,37.67-37.46h60.232c16.766,0,30.15-13.803,30.15-30.642v-57.419c0-16.339-13.785-28.618-30.15-31.345-10.359-1.7249-21.108-2.509-31.415-2.4597zm-32.61,18.483c6.2284,0,11.316,5.1696,11.316,11.526,0,6.3336-5.0874,11.457-11.316,11.457-6.2524,0-11.316-5.1232-11.316-11.457,0-6.3561,5.0634-11.526,11.316-11.526z" clip-path="url(#clipPath3236)" transform="matrix(0.49987113,0,0,0.49987113,-0.16006747,44.524012)" filter="url(#filter3770)" fill="#303030"/>
<path opacity="0.4" d="m451.93-501.29v26.776c0,20.762-17.599,38.232-37.669,38.232h-60.232c-16.498,0-30.15,14.121-30.15,30.643v57.422c0,16.34,14.209,25.954,30.15,30.64,19.089,5.6128,37.391,6.6302,60.232,0,15.18-4.3929,30.15-13.241,30.15-30.64v-22.984h-60.23v-7.6592h90.379c17.526,0,24.058-12.223,30.151-30.571,6.2958-18.891,6.0285-37.057,0-61.287-4.3306-17.445-12.603-30.571-30.151-30.571h-22.63zm-33.874,145.41c6.2509,0,11.315,5.1193,11.315,11.453,0,6.3556-5.0644,11.528-11.315,11.528-6.228,0-11.314-5.1721-11.314-11.528-0.0005-6.3341,5.0858-11.453,11.314-11.453z" clip-path="url(#clipPath3232)" transform="matrix(0.49987113,0,0,0.49987113,-0.16006747,44.524012)" filter="url(#filter3778)" fill="#303030"/>
</g>
</g>
</svg>
